<svg width="22" height="22" viewBox="0 0 22 22" fill="none" xmlns="http://www.w3.org/2000/svg">
<path d="M7.52604 7.07599C7.52604 7.07599 3.36353 7.55932 0.586772 7.88247C0.336494 7.91423 0.115197 8.08961 0.0322102 8.35613C-0.0507765 8.62266 0.03221 8.90023 0.216625 9.07561C2.27944 11.049 5.37892 14.0042 5.37892 14.0042C5.37629 14.0042 4.52798 18.3031 3.9642 21.1714C3.91678 21.431 4.00635 21.7058 4.22238 21.8701C4.43709 22.0345 4.71371 22.0372 4.93106 21.9088C7.36007 20.4615 10.9983 18.2852 10.9983 18.2852C10.9983 18.2852 14.6379 20.4615 17.0629 21.9102C17.2842 22.0372 17.5608 22.0345 17.7756 21.8701C17.9916 21.7058 18.0812 21.431 18.0324 21.1727C17.4686 18.3031 16.6216 14.0042 16.6216 14.0042C16.6216 14.0042 19.7211 11.049 21.7839 9.07975C21.9684 8.89885 22.05 8.62128 21.9684 8.35613C21.8867 8.09099 21.6654 7.91561 21.4151 7.88523C18.6383 7.55933 14.4745 7.07599 14.4745 7.07599C14.4745 7.07599 12.7489 3.074 11.599 0.406C11.491 0.167095 11.2644 0 10.9983 0C10.7322 0 10.5043 0.168476 10.4016 0.406C9.25032 3.074 7.52604 7.07599 7.52604 7.07599Z" fill="white"/>
</svg>
